# xmcd
#
# Track frame offsets:
#	150
#	12137
#	31365
#	45115
#	58950
#	74762
#	85987
#	101627
#	119797
#	138442
#	153257
#	177072
#	188120
#	204847
#	219230
#	235435
#	248980
#	268530
#	284620
#	304930
#
# Disc length: 4270
#
# Revision: 3
# Processed by: cddbd v1.5.1PL0 Copyright (c) Steve Scherf et al.
# Submitted via: VisiTrax 2.9.5.181 - For more info visit www.synapsa.com
# Normalized: r2:DSETVAR1
#
DISCID=2410ac14
DTITLE=Various Artist - Toe The Line 1
DYEAR=1900
DGENRE=
TTITLE0=John Northrup - Wild Horse Saloon Theme
TTITLE1=Tracy Byrd - Watermelon Crawl (Dance Mix)
TTITLE2=Vince Gill - What The Cowgirls Do
TTITLE3=George Strait - Easy Come, Easy Go
TTITLE4=Mark Chesnutt - Going Through The Big D (Club Mix)
TTITLE5=David Lee Murphy - Out With A Bang
TTITLE6=Reba McEntire - Why Haven't I Heard From You
TTITLE7=Marty Stuart - If I Ain't Got You (Club Mix)
TTITLE8=Rodney Crowell - Let The Picture Paint Itself
TTITLE9=David Lee Murphy - Dust On The Bottle (Reedit Mix)
TTITLE10=Tracy Byrd - 4 To 1 In Atlanta (Beat Mix)
TTITLE11=George Jones - High Tech Redneck
TTITLE12=Mark Chesnutt - Gonna Get A Life
TTITLE13=Vince Gill - One More Last Chance
TTITLE14=George Strait - Adalida
TTITLE15=Trisha Yearwood - I Wanna Go Too Far
TTITLE16=The Mavericks - All You Ever Do Is Bring Me Down
TTITLE17=Mark Chesnutt - Trouble
TTITLE18=Steve Earle - Copperhead Road
TTITLE19=Tracy Byrd - Walking To Jerusalem (Dance Mix)
EXTD=
EXTT0=
EXTT1=
EXTT2=
EXTT3=
EXTT4=
EXTT5=
EXTT6=
EXTT7=
EXTT8=
EXTT9=
EXTT10=
EXTT11=
EXTT12=
EXTT13=
EXTT14=
EXTT15=
EXTT16=
EXTT17=
EXTT18=
EXTT19=
PLAYORDER=
